<svg width="183" height="72" viewBox="0 0 183 72" fill="none" xmlns="http://www.w3.org/2000/svg">
<path d="M77.3566 35.2137C77.3566 39.1055 74.2848 41.9946 68.9868 41.9946C64.4579 41.9946 61.1186 40.0701 60.1583 39.2201L61.7731 34.5977C63.4212 36.1401 66.2255 37.2527 68.5282 37.2909C70.7926 37.3291 72.4408 36.8325 72.4408 35.6339C72.4408 34.7887 71.5952 34.4783 69.0632 34.0581C61.9641 32.8977 60.765 30.6246 60.765 27.5064C60.765 24.4263 64.1044 21.6519 69.0967 21.6519C71.6764 21.6853 74.2132 22.3156 76.5063 23.4999L75.1256 27.9696C74.1654 27.2771 71.6334 26.3937 69.1015 26.3507C67.1045 26.3125 65.6857 26.6993 65.6857 27.5064C65.6857 28.662 67.6826 28.853 69.7129 29.2016C76.1671 30.2426 77.3566 32.7878 77.3566 35.2137Z" fill="white"/>
<path d="M97.5165 30.1374V41.3928H92.6102V30.763C92.6102 27.7545 91.4589 26.384 88.9317 26.384C86.7102 26.384 84.6369 27.8691 84.6369 31.3885V41.3928H79.7306V13.8823H84.6369V23.8866C85.9411 22.325 87.5128 21.3843 90.3888 21.3843C94.76 21.3843 97.5165 24.2781 97.5165 30.1374Z" fill="white"/>
<path d="M120.644 31.8232C120.644 33.8336 120.037 35.801 118.896 37.4724C117.754 39.1437 116.134 40.4474 114.238 41.2162C112.341 41.985 110.253 42.1856 108.242 41.794C106.231 41.4025 104.382 40.4331 102.93 39.01C101.478 37.587 100.489 35.7772 100.092 33.805C99.6909 31.8328 99.8963 29.7889 100.685 27.9314C101.468 26.0738 102.801 24.4836 104.506 23.3662C106.212 22.2488 108.218 21.6519 110.273 21.6519C111.634 21.6519 112.986 21.9145 114.247 22.4207C115.509 22.9269 116.65 23.6814 117.615 24.6221C118.58 25.5676 119.345 26.6898 119.865 27.9218C120.377 29.1634 120.644 30.4861 120.644 31.8232ZM115.614 31.8232C115.614 30.787 115.298 29.7746 114.711 28.9151C114.123 28.0555 113.287 27.3822 112.313 26.9859C111.338 26.5895 110.263 26.4844 109.226 26.6898C108.19 26.8903 107.239 27.3918 106.489 28.1224C105.739 28.853 105.233 29.7889 105.027 30.8013C104.822 31.8184 104.927 32.869 105.333 33.8288C105.739 34.7887 106.422 35.6052 107.301 36.1783C108.18 36.7513 109.212 37.0617 110.273 37.0617C111.691 37.0617 113.048 36.5078 114.051 35.5288C115.05 34.5451 115.614 33.2128 115.614 31.8232Z" fill="white"/>
<path d="M143.179 31.933C143.179 37.6204 138.817 42.2142 133.433 42.2142C131.073 42.2142 129.028 41.3165 127.456 39.5258V51.5595H122.426V22.2774H127.456V24.3403C129.028 22.5496 131.073 21.6519 133.433 21.6519C138.822 21.6566 143.179 26.2505 143.179 31.933ZM138.143 31.933C138.143 30.8873 137.828 29.8606 137.24 28.9915C136.653 28.1224 135.817 27.4443 134.842 27.0432C133.868 26.642 132.793 26.537 131.751 26.7423C130.715 26.9476 129.764 27.4538 129.014 28.194C128.264 28.9342 127.757 29.8797 127.552 30.9064C127.347 31.933 127.452 32.9979 127.858 33.9673C128.264 34.9367 128.947 35.7628 129.826 36.3454C130.705 36.928 131.737 37.2384 132.797 37.2384C134.216 37.2384 135.573 36.6797 136.576 35.6864C137.58 34.6836 138.143 33.337 138.143 31.933Z" fill="white"/>
<path d="M162.149 35.2085C162.149 39.1004 158.972 41.9894 153.493 41.9894C148.806 41.9894 145.352 40.0602 144.359 39.215L146.026 34.5925C147.731 36.1349 150.631 37.2523 153.015 37.2905C155.356 37.3287 157.066 36.8273 157.066 35.6335C157.066 34.7883 156.192 34.4779 153.569 34.0577C146.222 32.9021 144.994 30.629 144.994 27.5108C144.994 24.4307 148.448 21.6562 153.612 21.6562C156.278 21.6897 158.905 22.32 161.28 23.5043L159.851 27.974C158.858 27.2815 156.24 26.3981 153.617 26.3551C151.548 26.3169 150.082 26.7037 150.082 27.5108C150.082 28.6664 152.15 28.8574 154.252 29.206C160.921 30.2422 162.149 32.7827 162.149 35.2085Z" fill="white"/>
<path d="M182.902 22.2534L170.328 51.5594H164.667L169.702 40.1798L162.154 22.2534H167.815L172.535 33.6329L177.255 22.2534H182.902Z" fill="white"/>
<path d="M45.4819 50.6473L41.2588 12.6504C41.0724 10.979 39.6584 9.7088 37.972 9.7088H33.2472C32.865 4.59925 28.4842 0.831543 22.7514 0.831543C17.0187 0.831543 12.6379 4.59925 12.2509 9.7088H7.53093C5.84454 9.7088 4.43045 10.9743 4.24414 12.6504L0.0209936 50.6473C-0.198763 52.6052 1.33475 54.3148 3.30778 54.3148H42.1999C44.1681 54.3148 45.7017 52.6052 45.4819 50.6473ZM22.7514 3.9116C26.6736 3.9116 29.6929 6.35655 30.0798 9.71358H15.4135C15.8005 6.35655 18.8245 3.9116 22.7514 3.9116Z" fill="white"/>
<path d="M33.979 36.3215C33.979 41.1159 30.2097 44.6735 23.6934 44.6735C18.1278 44.6735 14.0194 42.3002 12.8394 41.2544L14.8219 35.567C16.8523 37.4628 20.2967 38.8428 23.1297 38.8906C25.9149 38.9383 27.9452 38.3223 27.9452 36.8468C27.9452 35.8058 26.9085 35.4237 23.7937 34.9032C15.0656 33.4802 13.6037 30.6819 13.6037 26.8378C13.6037 23.0462 17.7074 19.6223 23.8415 19.6223C27.0136 19.6605 30.1284 20.4437 32.9471 21.9001L31.2463 27.406C30.0663 26.5513 26.9515 25.4625 23.8367 25.4147C21.3812 25.367 19.6327 25.8445 19.6327 26.8378C19.6327 28.2608 22.0882 28.4996 24.5868 28.9246C32.5171 30.1996 33.979 33.3322 33.979 36.3215Z" fill="#503CEB"/>
<path d="M48.0766 51.5882C47.6084 51.5882 47.2024 51.2348 47.145 50.7573L42.855 13.257C42.7977 12.7412 43.1655 12.278 43.6815 12.2207C44.1974 12.1634 44.6608 12.5311 44.7182 13.0469L49.0082 50.552C49.0655 51.0677 48.6977 51.5309 48.1817 51.5882C48.1483 51.5882 48.11 51.5882 48.0766 51.5882Z" fill="#968AF3"/>
<path d="M109.996 57.8862C109.623 57.8862 109.253 57.9465 108.869 58.0697C107.476 58.5177 106.568 59.6445 106.558 59.6549L106.442 59.7991L106.478 58.7536C106.486 58.5832 106.422 58.4129 106.304 58.2871C106.185 58.164 106.021 58.0932 105.854 58.0932H104.902C104.594 58.0932 104.334 58.3186 104.285 58.6304L102.365 70.9695C102.336 71.1555 102.388 71.3416 102.506 71.4831C102.624 71.6246 102.799 71.7058 102.982 71.7058H104.455C104.764 71.7058 105.021 71.4804 105.072 71.1712L105.399 69.1484C105.401 69.1353 105.401 69.1222 105.404 69.1091L105.519 67.9561L105.581 67.964C106.201 68.0504 106.725 68.095 107.142 68.095C108.196 68.095 109.129 67.8985 109.916 67.508C110.703 67.1202 111.312 66.5988 111.736 65.962C112.16 65.3201 112.477 64.6388 112.677 63.9392C112.878 63.2395 112.981 62.5032 112.981 61.7486C112.981 60.6035 112.718 59.6602 112.199 58.9475C111.674 58.2347 110.955 57.8862 109.996 57.8862ZM109.523 64.6676C109.078 65.4039 108.394 65.7786 107.489 65.7786C106.931 65.7786 106.43 65.7079 105.995 65.569L105.944 65.5533L106.365 62.8281C106.761 62.1495 107.214 61.5521 107.713 61.049C108.219 60.538 108.677 60.2786 109.075 60.2786C109.43 60.2786 109.708 60.4699 109.903 60.8472C110.091 61.2114 110.186 61.6805 110.186 62.2386C110.186 63.1242 109.962 63.9418 109.523 64.6676Z" fill="white" fill-opacity="0.37"/>
<path d="M97.2251 54.4563H95.7365C95.428 54.4563 95.1683 54.6816 95.1195 54.9961C95.104 55.1061 93.5408 65.2651 93.528 65.3542C93.4894 65.5743 93.4714 65.7787 93.4714 65.9621C93.4714 66.6434 93.6797 67.1701 94.0859 67.5317C94.4973 67.8959 95.0989 68.0793 95.8805 68.0793C96.189 68.0793 96.6364 67.9483 96.7932 67.888C96.9526 67.8278 97.0786 67.7623 97.1789 67.6915C97.2894 67.6103 97.364 67.4609 97.382 67.2828L97.4668 66.4364C97.4848 66.2503 97.4231 66.0643 97.2945 65.9307C97.202 65.8311 97.076 65.7656 96.9449 65.7446C96.9038 65.7394 96.6595 65.6817 96.5515 65.5769C96.4333 65.4669 96.3741 65.2494 96.3741 64.9297C96.3741 64.8668 96.3818 64.7646 96.3947 64.6048L97.8422 55.1952C97.8705 55.0118 97.8165 54.8258 97.6982 54.6816C97.5825 54.5375 97.4102 54.4563 97.2251 54.4563Z" fill="white" fill-opacity="0.37"/>
<path d="M101.452 57.2521C102.071 57.2521 102.534 57.087 102.827 56.7647C103.125 56.4345 103.272 56.0258 103.272 55.5096C103.272 55.1113 103.161 54.8099 102.943 54.6134C102.722 54.4143 102.382 54.3147 101.932 54.3147C101.313 54.3147 100.853 54.4798 100.557 54.8021C100.259 55.1322 100.112 55.541 100.112 56.0572C100.112 56.4581 100.223 56.7595 100.444 56.956C100.668 57.1551 100.997 57.2521 101.452 57.2521Z" fill="white" fill-opacity="0.37"/>
<path d="M93.6847 55.19C93.7129 55.0066 93.659 54.8205 93.5433 54.679C93.4224 54.5375 93.2502 54.4563 93.0676 54.4563H86.0616C85.7531 54.4563 85.4934 54.6816 85.4445 54.9935L83.56 67.1177C83.5317 67.3011 83.5831 67.4898 83.7014 67.6313C83.8196 67.7727 83.9919 67.854 84.177 67.854H85.7942C86.1027 67.854 86.3624 67.6286 86.4112 67.3168L87.1388 62.6107H91.1471C91.453 62.6107 91.7127 62.3854 91.7615 62.0762L91.9261 61.049C91.9544 60.8656 91.9029 60.6769 91.7847 60.5354C91.6664 60.3939 91.4916 60.3101 91.309 60.3101H87.5245L88.0207 56.9063H92.8876C93.1987 56.9063 93.4584 56.6783 93.5047 56.3665L93.6847 55.19Z" fill="white" fill-opacity="0.37"/>
<path d="M102.429 58.3159C102.31 58.1744 102.136 58.0906 101.953 58.0906H100.482C100.174 58.0906 99.9142 58.3159 99.8653 58.6304L98.5515 67.1359C98.5233 67.3193 98.5747 67.5054 98.693 67.6469C98.8112 67.7884 98.9835 67.8696 99.166 67.8696H100.637C100.945 67.8696 101.205 67.6443 101.254 67.3324L102.567 58.8269C102.601 58.6435 102.547 58.4574 102.429 58.3159Z" fill="white" fill-opacity="0.37"/>
<path d="M122.459 58.0907H120.909C120.634 58.0907 120.387 58.2793 120.312 58.5492C120.179 59.0078 119.929 59.5397 119.567 60.1293C119.058 60.9599 118.639 61.4761 118.284 61.7093L118.227 61.7355C118.099 61.7984 117.906 61.8954 117.22 62.0185L117.135 62.0343L118.207 55.1926C118.235 55.0092 118.184 54.8205 118.065 54.679C117.947 54.5375 117.775 54.4563 117.592 54.4563H116.106C115.798 54.4563 115.538 54.6816 115.489 54.9935L113.6 67.136C113.571 67.3194 113.623 67.5081 113.741 67.6496C113.862 67.7911 114.034 67.8723 114.217 67.8723H115.705C116.014 67.8723 116.273 67.647 116.322 67.3352L116.811 64.1698H117.741L119.024 67.4688C119.12 67.7151 119.348 67.8723 119.605 67.8723H121.217C121.562 67.8723 121.842 67.5867 121.842 67.2356C121.842 67.1465 121.824 67.0626 121.788 66.9814L120.32 63.1269L120.351 63.0981C120.96 62.54 121.583 61.7513 122.202 60.7529C122.606 60.1057 122.894 59.4873 123.061 58.9135C123.117 58.7222 123.079 58.5125 122.963 58.3527C122.842 58.1876 122.657 58.0907 122.459 58.0907Z" fill="white" fill-opacity="0.37"/>
<path d="M146.594 58.0905H145.432L145.689 56.4004C145.717 56.217 145.663 56.0284 145.545 55.8895C145.426 55.748 145.252 55.6667 145.069 55.6667H143.894C143.619 55.6667 143.372 55.8554 143.295 56.1253L142.727 58.0932H142.084C141.776 58.0932 141.516 58.3185 141.467 58.6277L141.32 59.5422C141.292 59.7256 141.344 59.9143 141.462 60.0558C141.58 60.1973 141.752 60.2785 141.938 60.2785H142.328L141.634 64.8038C141.585 65.0868 141.562 65.3855 141.562 65.6947C141.562 66.4965 141.768 67.0808 142.197 67.4791C142.619 67.8748 143.267 68.0739 144.12 68.0739C144.635 68.0739 145.36 67.8565 145.444 67.825C145.514 67.8014 145.637 67.7569 145.653 67.749C145.681 67.7385 145.707 67.7254 145.732 67.7123C145.91 67.6128 146.031 67.432 146.054 67.2276L146.162 66.2895C146.182 66.093 146.113 65.8938 145.974 65.7576C145.933 65.7183 145.887 65.6842 145.838 65.658C145.807 65.6397 145.773 65.6266 145.743 65.6161C145.72 65.6082 145.663 65.5951 145.442 65.6004C145.39 65.6004 145.331 65.603 145.275 65.603C145.172 65.603 145.108 65.6004 145.072 65.5925C144.984 65.5768 144.768 65.5296 144.66 65.43C144.609 65.3829 144.447 65.2361 144.447 64.699C144.447 64.6466 144.452 64.568 144.465 64.4474L145.1 60.2785H146.419C146.717 60.2785 146.974 60.061 147.031 59.7649L147.206 58.8504C147.242 58.6618 147.195 58.4705 147.074 58.3237C146.959 58.177 146.781 58.0905 146.594 58.0905Z" fill="white" fill-opacity="0.37"/>
<path d="M139.996 57.9805C139.356 58.1351 138.729 58.536 138.317 58.8452C137.847 59.1989 137.168 59.9483 137.161 59.9562L137.047 60.082L137.109 58.7587C137.117 58.5858 137.055 58.4155 136.937 58.2897C136.821 58.1639 136.657 58.0905 136.484 58.0905H135.523C135.214 58.0905 134.955 58.3159 134.906 58.6303L133.592 67.1359C133.564 67.3193 133.615 67.5053 133.733 67.6468C133.852 67.7883 134.024 67.8696 134.206 67.8696H135.695C136.006 67.8696 136.266 67.6442 136.312 67.3298L137.006 62.8019C137.402 62.2359 137.916 61.7459 138.536 61.3476C139.001 61.0489 139.48 60.8602 139.953 60.7842C140.212 60.7423 140.421 60.5379 140.469 60.2733L140.757 58.7168C140.799 58.5045 140.729 58.2871 140.575 58.1377C140.421 57.9936 140.202 57.9307 139.996 57.9805Z" fill="white" fill-opacity="0.37"/>
<path d="M132.666 58.2924C131.309 58.0225 130.09 57.8862 129.049 57.8862C128.198 57.8862 127.421 58.0172 126.738 58.2767C126.054 58.5361 125.491 58.8793 125.064 59.296C124.634 59.7152 124.269 60.2105 123.979 60.7738C123.688 61.3372 123.48 61.9058 123.367 62.4692C123.251 63.0299 123.192 63.6169 123.192 64.2117C123.192 65.3594 123.454 66.3001 123.974 67.0128C124.493 67.7281 125.213 68.0766 126.172 68.0766C126.612 68.0766 127.031 68.0033 127.419 67.8565C127.496 67.8277 128.193 67.5578 128.823 67.0573C129.244 66.7246 129.609 66.3105 129.615 66.3053L129.728 66.1769L129.692 67.2093C129.684 67.3823 129.751 67.55 129.867 67.6731C129.985 67.7963 130.149 67.867 130.316 67.867H131.268C131.576 67.867 131.839 67.6417 131.885 67.3299L133.168 59.013C133.217 58.6776 132.998 58.3605 132.666 58.2924ZM129.8 63.1347C129.404 63.8134 128.951 64.4108 128.452 64.9139C127.946 65.4249 127.488 65.6843 127.092 65.6843C126.738 65.6843 126.457 65.493 126.265 65.1157C126.077 64.7515 125.982 64.2824 125.982 63.7243C125.982 62.8412 126.205 62.0237 126.645 61.2953C127.092 60.559 127.776 60.1869 128.679 60.1869C129.237 60.1869 129.738 60.2576 130.172 60.3965L130.221 60.4122L129.8 63.1347Z" fill="white" fill-opacity="0.37"/>
<path d="M66.9073 57.9335C67.784 57.9335 68.4756 58.2925 68.9872 59.0079C69.4963 59.7232 69.7508 60.6429 69.7508 61.7697C69.7508 62.5034 69.648 63.2161 69.4449 63.9079C69.2418 64.5996 68.9281 65.2626 68.509 65.8993C68.0899 66.536 67.496 67.047 66.7273 67.4322C65.9586 67.8174 65.0664 68.0113 64.0457 68.0113C62.8091 68.0113 61.5133 67.8279 60.1583 67.461L62.174 54.3909H64.3517L63.6318 59.0498L63.3798 60.1503C64.5188 58.6725 65.6963 57.9335 66.9073 57.9335ZM66.3314 59.9328C65.8506 59.9328 65.2875 60.2656 64.6396 60.9338C63.9917 61.5994 63.4287 62.3619 62.9479 63.2187L62.5519 65.8941C63.007 66.0775 63.5778 66.1692 64.2617 66.1692C64.8607 66.1692 65.3826 66.0382 65.8274 65.7735C66.2722 65.5115 66.6142 65.1682 66.8533 64.7464C67.0924 64.3245 67.2672 63.8895 67.3752 63.4441C67.4832 62.9986 67.5372 62.5479 67.5372 62.0946C67.5372 61.4474 67.4318 60.9233 67.2209 60.525C67.0127 60.132 66.717 59.9328 66.3314 59.9328Z" fill="white" fill-opacity="0.37"/>
<path d="M68.9073 71.47L69.2673 69.6542C69.6401 69.814 70.054 69.8926 70.5091 69.8926C71.4218 69.8926 72.2137 69.1904 72.8847 67.7833L70.959 58.1353H73.2987L74.1445 63.858L74.2885 65.784C74.9955 64.4266 75.682 62.9645 76.3505 61.4002C77.0164 59.8358 77.3506 58.7458 77.3506 58.1353H79.5642V58.2453C79.5642 59.1388 78.9626 60.7398 77.7542 63.051C76.5484 65.3621 75.6511 66.9474 75.0624 67.8016C74.6793 68.475 74.3733 68.9886 74.1445 69.3423C73.9157 69.6961 73.6123 70.0891 73.2344 70.5163C72.8564 70.9434 72.4502 71.2526 72.0183 71.4438C71.5864 71.6325 71.1004 71.7268 70.5605 71.7268C70.0103 71.7268 69.4575 71.643 68.9073 71.47Z" fill="white" fill-opacity="0.37"/>
</svg>
